<?xml version="1.0" encoding="UTF-8" standalone="no"?>
<!DOCTYPE svg PUBLIC "-//W3C//DTD SVG 20010904//EN"
              "http://www.w3.org/TR/2001/REC-SVG-20010904/DTD/svg10.dtd">

<svg xmlns="http://www.w3.org/2000/svg"
     width="3.33333in" height="0.666667in"
     viewBox="0 0 1000 200">
  <path id="Path"
        fill="none" stroke="black" stroke-width="1"
        d="M 81.78,63.20
           C 79.70,63.00 77.64,63.00 75.75,63.00
             75.75,63.00 51.31,63.00 51.31,63.00
             52.06,56.98 52.25,50.03 52.64,43.64
             52.64,43.08 52.83,42.52 52.83,41.95
             52.83,41.95 52.83,29.36 52.83,29.36
             52.83,27.84 53.02,26.16 53.02,24.47
             53.02,24.28 52.25,22.78 51.31,22.78
             49.25,22.78 45.11,24.84 43.80,25.59
             41.55,25.59 37.41,29.92 35.72,31.42
             35.72,31.42 33.83,33.30 33.83,33.30
             33.08,34.25 32.52,35.19 32.14,36.50
             32.14,36.50 30.83,63.81 30.83,63.81
             29.89,64.00 28.94,64.00 27.62,64.00
             27.62,64.00 20.86,64.00 20.86,64.00
             18.23,64.20 15.97,64.39 13.91,64.77
             12.97,65.14 12.41,65.33 11.64,65.33
             11.27,65.70 11.08,66.08 10.70,66.27
             9.77,67.39 9.20,68.70 8.64,69.83
             7.70,72.66 6.77,75.47 6.39,78.30
             6.20,79.61 6.02,81.11 6.02,82.44
             6.02,83.38 6.02,84.31 6.20,85.06
             6.20,85.06 6.77,86.56 6.77,86.56
             6.95,86.94 7.14,87.12 7.70,87.12
             7.89,87.12 8.08,87.12 8.27,86.94
             8.27,86.94 11.45,86.56 11.45,86.56
             11.45,86.56 25.38,86.56 25.38,86.56
             27.06,86.00 28.56,85.81 30.08,85.81
             30.08,85.81 29.33,107.75 29.33,107.75
             28.94,117.31 28.56,127.06 28.56,136.62
             28.56,138.31 28.56,140.19 28.75,142.06
             28.94,144.12 29.33,146.38 30.27,148.44
             31.58,151.25 33.64,152.00 36.28,152.00
             39.47,152.00 43.61,150.69 46.05,149.38
             51.31,146.94 56.20,143.56 61.09,140.00
             65.42,136.62 69.36,133.06 73.50,129.12
             74.81,128.00 76.70,126.12 77.08,124.25
             77.08,122.94 76.33,122.75 75.38,122.75
             75.38,122.75 74.44,122.75 74.44,122.75
             72.00,123.12 69.73,124.44 67.48,125.56
             64.67,127.25 62.03,128.94 59.78,131.19
             59.78,131.19 56.58,134.00 56.58,134.00
             56.20,134.38 55.83,134.94 55.27,135.31
             55.27,135.31 53.39,137.00 53.39,137.00
             53.39,137.00 52.64,136.62 52.64,136.62
             50.75,135.31 50.19,133.06 49.81,130.81
             49.44,127.81 49.44,124.62 49.44,121.44
             49.44,121.44 49.44,85.19 49.44,85.19
             53.77,85.00 56.95,85.00 60.16,85.00
             60.16,85.00 74.81,85.00 74.81,85.00
             75.38,85.00 76.14,85.00 76.52,85.19
             77.83,85.19 78.95,83.69 79.52,82.56
             79.52,82.38 81.58,77.67 82.16,75.05
             82.72,72.41 83.09,69.59 83.09,66.95
             82.91,66.20 82.91,63.39 81.78,63.20 Z
           M 154.27,69.53
           C 153.33,66.16 152.19,62.77 149.38,60.70
             146.55,58.81 143.17,58.25 139.97,58.06
             134.89,58.06 130.77,59.19 126.81,61.08
             120.23,64.45 114.22,68.59 108.95,73.67
             101.44,80.62 95.42,89.47 91.47,98.67
             87.14,108.64 84.70,118.98 84.70,130.08
             84.70,130.08 84.70,131.20 84.70,131.20
             84.70,135.72 85.08,140.22 86.58,144.55
             87.52,146.80 89.03,149.25 91.28,150.75
             93.91,152.62 96.55,153.00 99.73,153.00
             102.75,152.81 106.12,152.06 108.95,150.75
             120.61,146.05 131.14,138.91 139.41,129.70
             146.92,121.61 152.38,111.64 155.02,100.94
             155.95,96.61 156.70,92.47 156.70,87.95
             156.70,86.64 156.52,85.70 156.52,84.58
             156.52,84.58 156.52,80.06 156.52,80.06
             156.52,79.50 156.33,79.12 156.33,78.75
             155.77,75.55 155.39,72.36 154.27,69.53 Z
           M 120.80,136.47
           C 117.78,137.59 117.03,137.78 116.28,137.78
             114.78,137.78 113.28,137.41 112.16,136.66
             108.39,134.20 107.08,129.70 106.33,125.56
             105.75,123.30 105.75,120.86 105.75,118.42
             105.75,115.97 106.33,113.72 106.70,111.27
             106.70,111.27 106.70,110.14 106.70,110.14
             106.70,102.44 108.95,95.86 111.58,89.47
             113.28,84.95 115.72,80.44 118.73,76.30
             119.48,75.36 120.23,74.23 121.36,73.30
             123.81,73.48 126.25,73.67 128.31,74.80
             132.45,77.62 133.77,83.45 134.33,88.14
             134.89,92.28 135.27,96.05 135.27,100.17
             135.27,111.08 129.83,131.02 120.80,136.47 Z
           M 289.78,77.00
           C 289.78,72.86 289.78,68.72 288.64,64.59
             288.08,62.52 286.77,60.08 284.89,58.95
             283.00,57.62 281.31,57.25 279.25,57.25
             278.31,57.25 277.55,57.25 276.80,57.44
             272.67,57.81 268.91,59.52 265.33,61.20
             260.83,63.45 256.50,66.28 252.36,69.09
             247.47,72.67 242.58,76.62 237.89,80.75
             237.89,77.38 237.33,73.80 236.38,70.22
             234.31,63.45 229.42,61.20 223.78,61.20
             215.70,61.20 205.55,66.28 199.53,69.28
             196.34,71.17 193.14,73.23 190.12,75.48
             190.12,70.98 190.12,66.84 190.33,62.70
             190.33,61.39 190.52,60.27 190.52,59.14
             190.52,58.95 189.75,57.44 188.81,57.44
             186.38,57.44 182.05,59.70 180.73,60.27
             179.42,60.27 173.59,65.34 172.45,66.47
             170.77,68.16 168.89,70.03 168.70,71.55
             168.33,76.05 168.33,80.56 168.33,85.08
             168.33,85.08 168.33,107.27 168.33,107.27
             168.33,120.92 168.33,135.02 169.08,148.75
             169.08,148.75 169.64,152.31 169.64,152.31
             169.64,152.50 169.64,152.88 169.83,153.44
             170.20,153.81 170.58,154.00 171.33,154.00
             171.52,154.00 171.89,154.00 172.08,153.81
             174.91,153.44 177.34,152.12 179.61,150.81
             182.42,149.12 185.25,147.23 187.50,144.98
             187.50,144.98 189.38,143.11 189.38,143.11
             190.33,142.16 190.89,141.03 191.27,139.72
             190.70,135.20 190.70,130.50 190.70,126.00
             190.52,118.47 190.33,111.14 190.33,103.62
             190.33,97.05 190.12,90.66 190.12,84.08
             190.33,83.31 192.77,82.19 193.52,81.62
             193.52,81.62 195.77,80.12 195.77,80.12
             196.72,79.75 197.66,79.19 198.41,78.62
             198.41,78.62 202.36,76.92 202.36,76.92
             202.36,76.92 205.55,76.55 205.55,76.55
             207.05,76.73 208.75,77.30 210.25,77.86
             213.44,80.12 214.95,84.27 215.70,88.39
             216.08,90.47 216.08,92.72 216.08,94.78
             216.08,94.78 216.08,118.84 216.08,118.84
             216.45,125.50 216.45,131.89 216.45,138.47
             216.45,138.47 216.45,150.31 216.45,150.31
             216.45,151.62 217.02,152.00 218.14,152.00
             220.41,152.00 224.53,149.94 226.05,149.00
             228.30,149.00 232.81,144.67 234.50,142.98
             234.50,142.98 236.38,141.11 236.38,141.11
             237.14,139.97 237.89,139.03 238.27,137.72
             238.45,133.20 238.45,128.50 238.45,124.00
             238.27,116.66 238.27,109.33 238.27,102.19
             238.27,98.42 238.08,94.67 238.08,91.09
             242.39,87.70 246.34,83.77 250.48,80.19
             250.48,80.19 251.98,78.69 251.98,78.69
             253.11,78.50 254.23,76.81 255.19,76.25
             255.19,76.25 257.62,74.17 257.62,74.17
             258.38,74.17 258.75,73.42 259.12,73.23
             259.12,73.23 259.69,72.86 259.69,72.86
             259.69,72.86 261.02,72.86 261.02,72.86
             261.95,72.86 262.70,73.05 263.45,73.42
             266.09,75.11 267.03,78.50 267.59,81.50
             267.97,83.58 267.97,85.45 267.97,87.52
             267.97,87.52 267.97,111.41 267.97,111.41
             268.34,117.80 268.34,124.56 268.34,131.33
             268.34,131.33 268.34,143.55 268.34,143.55
             268.34,144.86 268.91,145.23 270.03,145.23
             272.30,145.23 276.42,143.17 277.94,142.42
             280.19,142.42 284.70,137.91 286.39,136.22
             286.39,136.22 288.27,134.33 288.27,134.33
             289.02,133.39 289.78,132.27 290.16,131.14
             290.34,126.44 290.34,121.92 290.34,117.23
             290.16,109.89 290.16,102.56 290.16,95.42
             290.16,95.42 289.78,77.00 289.78,77.00 Z
           M 379.84,103.00
           C 378.16,103.00 376.08,103.94 374.58,104.50
             369.31,106.95 364.05,110.52 360.67,115.59
             359.91,115.59 356.53,120.86 355.03,122.55
             355.03,122.55 346.75,131.95 346.75,131.95
             345.81,132.89 344.88,133.64 343.94,134.77
             343.56,134.95 343.19,135.33 342.81,135.72
             342.81,135.72 341.30,136.84 341.30,136.84
             341.30,137.03 340.92,137.03 340.73,137.03
             339.61,137.22 338.67,137.41 337.55,137.41
             335.66,137.41 333.59,137.03 331.72,135.91
             327.58,133.27 325.52,128.19 324.94,123.48
             324.56,121.42 324.38,118.98 324.38,116.91
             324.38,113.16 324.94,109.39 325.52,105.81
             326.45,98.86 328.14,92.09 330.95,85.70
             332.66,81.75 334.53,78.00 336.98,74.42
             336.98,74.42 339.23,71.80 339.23,71.80
             339.23,71.80 341.86,71.42 341.86,71.42
             344.50,71.61 347.12,72.17 349.39,73.48
             349.39,73.48 351.08,74.61 351.08,74.61
             351.45,75.17 352.20,75.36 352.77,75.36
             353.52,75.36 354.66,74.98 355.41,74.61
             357.84,74.61 361.98,71.80 363.86,70.28
             366.31,68.59 368.75,66.72 370.62,64.45
             371.00,64.08 372.70,62.20 372.70,60.89
             372.70,60.52 372.52,60.33 372.33,60.14
             368.75,57.12 364.42,56.00 359.91,56.00
             358.59,56.00 357.28,56.00 356.16,56.19
             350.89,56.94 346.19,59.19 341.30,61.83
             335.66,64.64 330.39,68.59 325.89,73.11
             321.94,76.48 318.55,80.81 315.73,85.14
             312.91,89.28 310.84,93.59 308.97,98.48
             306.89,103.38 305.58,108.64 304.45,113.91
             303.33,118.98 302.58,124.44 302.58,129.89
             302.58,136.28 303.70,143.98 308.41,148.88
             311.59,151.88 315.55,153.00 319.69,153.00
             320.81,153.00 321.94,153.00 323.25,152.81
             327.20,152.25 331.16,150.75 334.72,149.06
             340.55,146.42 345.62,142.86 350.70,139.09
             359.91,131.95 367.81,123.30 375.14,114.28
             377.20,111.64 379.28,108.83 381.16,106.00
             381.53,105.44 381.72,104.69 381.72,104.12
             381.72,103.38 381.53,103.00 380.59,103.00
             380.59,103.00 379.84,103.00 379.84,103.00 Z
           M 454.27,69.53
           C 453.33,66.16 452.19,62.77 449.38,60.70
             446.55,58.81 443.17,58.25 439.97,58.06
             434.89,58.06 430.77,59.19 426.81,61.08
             420.23,64.45 414.22,68.59 408.95,73.67
             401.44,80.62 395.42,89.47 391.47,98.67
             387.14,108.64 384.70,118.98 384.70,130.08
             384.70,130.08 384.70,131.20 384.70,131.20
             384.70,135.72 385.08,140.22 386.58,144.55
             387.52,146.80 389.03,149.25 391.28,150.75
             393.91,152.62 396.55,153.00 399.73,153.00
             402.75,152.81 406.12,152.06 408.95,150.75
             420.61,146.05 431.14,138.91 439.41,129.70
             446.92,121.61 452.38,111.64 455.02,100.94
             455.95,96.61 456.70,92.47 456.70,87.95
             456.70,86.64 456.52,85.70 456.52,84.58
             456.52,84.58 456.52,80.06 456.52,80.06
             456.52,79.50 456.33,79.12 456.33,78.75
             455.77,75.55 455.39,72.36 454.27,69.53 Z
           M 420.80,136.47
           C 417.78,137.59 417.03,137.78 416.28,137.78
             414.78,137.78 413.28,137.41 412.16,136.66
             408.39,134.20 407.08,129.70 406.33,125.56
             405.75,123.30 405.75,120.86 405.75,118.42
             405.75,115.97 406.33,113.72 406.70,111.27
             406.70,111.27 406.70,110.14 406.70,110.14
             406.70,102.44 408.95,95.86 411.58,89.47
             413.28,84.95 415.72,80.44 418.73,76.30
             419.48,75.36 420.23,74.23 421.36,73.30
             423.81,73.48 426.25,73.67 428.31,74.80
             432.45,77.62 433.77,83.45 434.33,88.14
             434.89,92.28 435.27,96.05 435.27,100.17
             435.27,111.08 429.83,131.02 420.80,136.47 Z
           M 552.36,89.48
           C 551.80,84.03 551.05,78.39 549.36,73.12
             547.66,68.23 545.78,63.73 541.27,60.53
             539.58,59.41 537.14,58.66 534.88,58.66
             534.88,58.66 533.94,58.66 533.94,58.66
             529.61,58.66 525.86,59.97 521.91,61.66
             513.83,65.23 506.67,71.62 501.22,78.39
             497.47,83.09 494.08,88.17 491.27,93.44
             491.27,84.22 491.08,75.19 490.70,66.17
             490.52,62.41 490.12,58.84 489.56,55.08
             489.56,54.70 489.00,54.52 488.44,54.52
             487.31,54.52 485.62,55.08 485.44,55.08
             482.98,56.02 480.36,57.33 478.09,59.03
             475.84,60.53 473.59,62.22 471.89,64.30
             471.89,64.30 470.77,65.98 470.77,65.98
             470.39,66.36 470.20,66.73 470.20,67.30
             470.20,67.48 470.20,67.86 470.39,68.05
             470.95,72.75 471.14,77.45 471.14,81.97
             471.52,89.11 471.52,96.27 471.52,103.41
             471.52,117.84 471.33,132.27 470.39,146.48
             470.20,149.70 470.02,152.73 469.45,155.95
             469.45,157.08 470.02,157.45 470.77,157.45
             472.64,157.45 475.84,155.77 477.53,155.00
             477.91,155.00 478.47,154.62 478.47,154.62
             481.11,153.11 483.55,151.41 485.62,149.33
             486.94,148.19 488.81,146.48 489.00,144.58
             489.19,143.83 489.38,142.88 489.38,141.92
             490.12,140.98 490.52,139.84 490.89,138.70
             492.20,135.11 493.14,131.50 494.27,127.91
             496.34,121.83 498.41,115.95 500.66,110.08
             500.66,110.08 501.59,108.00 501.59,108.00
             504.98,99.84 508.94,91.69 513.83,84.30
             515.33,82.02 517.02,79.94 518.70,78.05
             518.70,78.05 521.16,75.77 521.16,75.77
             521.16,75.77 522.09,75.20 522.09,75.20
             522.47,75.00 522.66,75.00 522.84,75.00
             523.03,75.00 524.16,75.58 524.72,76.14
             526.80,78.05 527.92,80.69 528.86,83.16
             530.55,88.28 531.31,93.58 531.88,98.70
             532.62,105.16 532.81,111.41 532.81,117.84
             532.81,117.84 532.81,121.27 532.81,121.27
             532.81,129.75 532.25,138.59 532.25,147.44
             532.25,149.69 534.12,150.81 535.81,151.00
             535.81,151.00 536.95,151.00 536.95,151.00
             539.02,151.00 541.27,150.25 542.97,149.31
             547.28,147.25 552.55,143.11 552.55,138.03
             552.55,134.08 552.92,130.31 552.92,126.36
             552.92,119.97 553.30,114.33 553.30,108.48
             553.30,102.09 552.92,95.89 552.36,89.48 Z
           M 621.53,111.41
           C 618.53,111.78 615.89,113.09 613.27,114.78
             611.20,116.28 608.38,118.55 607.25,120.98
             605.94,124.19 604.23,127.00 602.36,129.83
             601.42,131.14 600.48,132.45 599.36,133.77
             599.36,133.77 597.84,134.91 597.84,134.91
             597.66,135.09 597.09,135.28 596.91,135.28
             596.91,135.28 595.22,134.91 595.22,134.91
             593.91,134.53 592.58,133.77 591.45,132.83
             589.39,130.77 587.89,128.50 586.75,125.69
             585.62,122.11 585.25,118.36 585.25,114.59
             585.25,113.09 585.25,111.59 585.44,110.27
             590.52,108.77 596.16,107.45 601.42,105.19
             609.69,101.81 617.41,95.61 621.91,87.91
             624.17,84.14 625.48,79.62 625.48,75.11
             625.48,71.36 624.55,67.59 622.86,64.02
             621.91,62.33 620.59,61.02 618.91,59.70
             617.59,58.38 615.70,58.00 614.02,57.44
             612.89,57.44 611.39,56.88 610.06,56.88
             608.94,56.88 608.19,57.06 607.44,57.06
             605.38,57.25 602.92,57.81 601.05,58.56
             595.41,60.64 590.14,63.64 585.62,67.59
             583.94,69.09 582.25,70.98 580.73,72.86
             579.05,75.48 577.92,77.38 576.61,80.19
             573.78,87.33 570.59,94.11 568.33,101.06
             566.64,105.77 565.52,110.64 564.95,115.53
             564.95,115.53 564.95,118.92 564.95,118.92
             564.95,119.67 564.77,119.86 564.77,120.05
             564.39,121.92 564.20,123.62 564.20,125.31
             564.20,127.56 564.39,129.83 564.77,132.08
             565.89,139.22 569.08,145.61 575.09,149.56
             577.73,151.06 580.73,152.00 583.94,152.00
             583.94,152.00 584.88,152.00 584.88,152.00
             589.77,152.00 594.66,150.69 599.17,148.44
             611.58,142.42 620.59,130.95 626.42,118.73
             626.98,117.42 627.55,116.09 627.55,114.97
             627.55,114.22 627.36,113.66 626.80,113.09
             625.86,111.78 624.17,111.41 622.67,111.41
             622.67,111.41 621.53,111.41 621.53,111.41 Z
           M 604.23,86.39
           C 604.23,87.33 603.67,88.28 603.48,89.22
             603.48,89.22 602.92,90.16 602.92,90.16
             602.73,90.72 601.23,91.28 600.86,91.47
             599.36,92.22 597.47,92.41 595.97,92.78
             594.09,92.78 591.45,93.73 589.58,93.92
             589.77,93.92 591.27,86.95 592.20,86.20
             592.20,86.20 596.91,75.11 596.91,75.11
             597.47,75.11 597.47,74.17 597.47,73.98
             597.66,73.80 597.84,73.80 598.03,73.80
             598.41,73.80 598.98,73.98 599.17,73.98
             599.92,74.17 600.48,74.55 601.05,74.92
             601.98,76.25 602.73,77.38 603.30,78.69
             603.30,79.44 603.48,79.44 603.48,79.62
             604.05,81.50 604.23,83.20 604.23,84.89
             604.23,84.89 604.23,86.39 604.23,86.39 Z
           M 719.48,54.81
           C 717.98,54.81 716.11,55.56 714.80,56.12
             711.97,57.44 709.34,58.95 707.08,60.83
             705.39,62.33 703.14,64.02 702.19,66.09
             698.62,72.86 695.42,80.00 692.05,86.95
             692.05,86.95 675.69,120.98 675.69,120.98
             675.69,120.98 672.30,108.58 672.30,108.58
             668.73,95.61 664.41,83.02 659.33,70.61
             658.20,68.16 657.27,65.34 655.56,63.08
             655.38,62.70 654.81,62.52 654.25,62.52
             653.31,62.52 652.00,62.89 651.44,63.08
             648.98,64.02 646.36,65.34 644.09,67.03
             641.84,68.53 639.59,70.22 637.89,72.30
             637.52,72.86 636.20,74.36 636.20,75.48
             636.20,75.67 636.20,76.05 636.39,76.25
             638.64,79.62 639.97,83.58 641.47,87.33
             643.91,93.53 645.98,99.75 648.05,105.95
             652.19,118.55 656.12,131.14 658.77,143.92
             659.14,145.42 659.52,146.94 659.70,148.62
             659.70,149.19 659.89,149.94 659.89,150.69
             659.89,151.44 660.08,151.81 660.64,152.00
             659.89,153.14 659.33,154.47 658.58,155.80
             657.08,159.03 655.38,162.27 653.69,165.30
             652.94,166.81 652.19,168.53 651.06,169.86
             650.50,170.81 649.73,171.56 648.98,172.52
             648.98,172.52 644.28,178.59 644.28,178.59
             643.91,178.97 643.53,179.16 643.34,179.55
             643.34,179.55 641.84,181.06 641.84,181.06
             641.47,181.25 641.28,181.44 640.91,181.44
             640.91,181.44 639.59,181.81 639.59,181.81
             637.52,182.20 635.45,182.58 633.58,182.58
             631.31,182.58 629.25,182.39 627.19,182.00
             627.19,182.00 626.23,182.00 626.23,182.00
             624.55,182.00 623.05,182.77 621.73,183.33
             618.91,184.64 616.28,186.14 614.02,188.03
             612.14,189.53 610.27,191.22 609.12,193.28
             608.75,193.66 608.56,194.42 608.56,194.98
             608.56,195.55 608.75,195.92 609.52,195.92
             611.95,196.48 614.58,196.67 617.03,196.67
             619.28,196.67 621.36,196.48 623.61,196.11
             629.44,194.98 634.89,192.72 639.97,189.91
             648.61,185.20 656.12,178.59 662.34,170.81
             663.84,169.09 665.16,167.20 666.47,165.48
             667.59,164.16 668.73,162.83 669.67,161.31
             671.36,158.84 672.67,156.00 674.19,153.14
             679.44,143.17 684.33,132.83 689.41,122.48
             689.41,122.48 706.89,86.20 706.89,86.20
             711.03,77.56 714.98,68.91 719.30,60.27
             719.30,60.27 720.62,57.44 720.62,57.44
             721.00,57.06 721.19,56.31 721.19,55.75
             721.19,55.19 721.00,54.81 720.23,54.81
             720.23,54.81 719.48,54.81 719.48,54.81 Z
           M 732.39,141.97
           C 731.45,139.89 730.70,137.64 729.56,135.58
             729.38,135.20 728.81,135.00 728.25,135.00
             727.12,135.00 726.00,135.39 725.44,135.58
             722.98,136.52 720.36,137.83 718.09,139.52
             715.84,141.03 713.59,142.72 711.89,144.78
             711.52,145.16 711.52,145.34 711.52,145.34
             711.52,145.34 711.14,145.91 711.14,145.91
             710.58,146.66 710.02,147.23 710.02,147.98
             710.02,148.17 710.20,148.55 710.39,148.73
             711.33,150.61 712.08,152.88 713.03,154.94
             713.78,156.81 714.72,159.08 716.41,160.77
             716.78,161.14 717.34,161.33 717.91,161.33
             718.86,161.33 719.80,160.95 720.55,160.77
             722.98,159.83 725.62,158.52 727.88,156.81
             730.12,155.31 732.39,153.62 734.08,151.55
             734.45,151.17 735.77,149.30 735.77,148.17
             735.77,147.98 735.77,147.80 735.58,147.61
             734.08,146.09 733.33,144.03 732.39,141.97 Z
           M 841.56,8.58
           C 841.56,8.39 841.56,8.00 841.38,7.62
             841.00,7.25 840.62,7.06 840.06,7.06
             839.69,7.06 839.50,7.06 839.12,7.25
             836.86,7.62 834.61,8.77 832.55,9.89
             829.91,11.39 827.47,13.08 825.39,15.16
             825.39,15.16 823.70,16.84 823.70,16.84
             822.95,17.78 822.39,18.72 822.02,19.84
             822.20,23.05 822.20,26.44 822.20,29.81
             822.20,29.81 821.64,45.61 821.64,45.61
             821.45,48.61 821.27,51.81 821.27,55.00
             821.27,55.00 819.38,55.00 819.38,55.00
             814.88,55.00 810.36,55.58 805.84,56.70
             799.27,58.20 792.88,61.41 787.05,64.97
             780.47,69.11 774.45,74.58 769.56,80.81
             763.92,88.00 759.78,95.95 756.78,104.64
             755.08,109.00 753.95,113.53 753.02,118.08
             752.64,119.59 752.45,121.30 752.45,122.80
             752.45,122.80 752.45,124.31 752.45,124.31
             752.64,126.78 753.02,129.05 753.58,131.50
             754.52,134.91 755.84,138.50 758.09,141.34
             762.23,146.83 768.62,149.84 775.20,149.84
             776.14,149.84 777.27,149.84 778.20,149.66
             786.86,148.52 794.75,143.42 800.95,137.36
             806.78,131.50 811.67,124.69 815.81,117.52
             815.81,117.52 816.94,115.61 816.94,115.61
             816.94,115.61 815.81,129.98 815.81,129.98
             815.81,130.38 815.62,130.56 815.62,130.94
             815.25,134.34 815.06,138.12 814.50,141.72
             814.50,142.28 814.31,142.66 814.31,143.23
             814.31,143.61 814.12,143.80 814.12,144.17
             813.73,147.02 813.55,149.84 812.98,152.50
             812.98,153.62 813.36,154.00 814.50,154.00
             814.50,154.00 815.44,154.00 815.44,154.00
             817.69,153.62 819.95,152.50 822.02,151.36
             824.64,149.84 827.09,148.14 829.16,146.06
             830.47,144.94 832.17,143.23 832.55,141.34
             833.11,138.31 833.48,135.28 833.86,132.06
             834.42,126.97 834.98,121.86 835.36,116.75
             836.67,103.14 837.81,89.52 838.75,75.72
             839.69,62.16 840.62,48.42 841.38,34.70
             841.56,29.44 841.75,24.17 841.75,18.72
             841.75,18.72 841.75,13.83 841.75,13.83
             841.75,12.14 841.75,10.45 841.56,8.58 Z
           M 808.30,97.66
           C 804.34,107.11 799.83,116.38 794.19,124.89
             792.69,127.16 791.00,129.42 789.11,131.31
             788.55,132.06 787.80,132.64 787.23,133.20
             786.86,133.20 786.67,133.58 786.30,133.58
             786.30,133.58 784.41,133.20 784.41,133.20
             782.53,132.64 780.84,131.69 779.34,130.38
             777.08,128.09 775.39,125.45 774.27,122.61
             773.33,119.41 772.75,116.19 772.75,112.78
             773.89,106.92 775.58,101.25 777.83,95.58
             779.34,91.98 781.22,88.39 783.47,84.98
             784.78,83.09 786.11,81.39 787.61,79.88
             788.55,78.73 789.67,77.80 790.81,76.84
             791.75,76.09 792.69,75.53 793.62,74.95
             793.62,74.95 797.02,73.25 797.02,73.25
             798.52,72.69 800.02,72.31 801.52,71.94
             802.27,71.94 802.27,71.73 802.47,71.73
             804.16,71.36 805.84,71.17 807.53,71.17
             809.42,71.17 811.48,71.36 813.36,71.94
             813.36,71.94 814.88,72.50 814.88,72.50
             815.44,72.88 816.19,73.06 816.75,73.06
             816.56,73.64 816.38,74.02 816.38,74.58
             814.31,82.33 811.48,90.09 808.30,97.66 Z
           M 905.53,111.41
           C 902.53,111.78 899.89,113.09 897.27,114.78
             895.20,116.28 892.38,118.55 891.25,120.98
             889.94,124.19 888.23,127.00 886.36,129.83
             885.42,131.14 884.48,132.45 883.36,133.77
             883.36,133.77 881.84,134.91 881.84,134.91
             881.66,135.09 881.09,135.28 880.91,135.28
             880.91,135.28 879.22,134.91 879.22,134.91
             877.91,134.53 876.58,133.77 875.45,132.83
             873.39,130.77 871.89,128.50 870.75,125.69
             869.62,122.11 869.25,118.36 869.25,114.59
             869.25,113.09 869.25,111.59 869.44,110.27
             874.52,108.77 880.16,107.45 885.42,105.19
             893.69,101.81 901.41,95.61 905.91,87.91
             908.17,84.14 909.48,79.62 909.48,75.11
             909.48,71.36 908.55,67.59 906.86,64.02
             905.91,62.33 904.59,61.02 902.91,59.70
             901.59,58.38 899.70,58.00 898.02,57.44
             896.89,57.44 895.39,56.88 894.06,56.88
             892.94,56.88 892.19,57.06 891.44,57.06
             889.38,57.25 886.92,57.81 885.05,58.56
             879.41,60.64 874.14,63.64 869.62,67.59
             867.94,69.09 866.25,70.98 864.73,72.86
             863.05,75.48 861.92,77.38 860.61,80.19
             857.78,87.33 854.59,94.11 852.33,101.06
             850.64,105.77 849.52,110.64 848.95,115.53
             848.95,115.53 848.95,118.92 848.95,118.92
             848.95,119.67 848.77,119.86 848.77,120.05
             848.39,121.92 848.20,123.62 848.20,125.31
             848.20,127.56 848.39,129.83 848.77,132.08
             849.89,139.22 853.08,145.61 859.09,149.56
             861.73,151.06 864.73,152.00 867.94,152.00
             867.94,152.00 868.88,152.00 868.88,152.00
             873.77,152.00 878.66,150.69 883.17,148.44
             895.58,142.42 904.59,130.95 910.42,118.73
             910.98,117.42 911.55,116.09 911.55,114.97
             911.55,114.22 911.36,113.66 910.80,113.09
             909.86,111.78 908.17,111.41 906.67,111.41
             906.67,111.41 905.53,111.41 905.53,111.41 Z
           M 888.23,86.39
           C 888.23,87.33 887.67,88.28 887.48,89.22
             887.48,89.22 886.92,90.16 886.92,90.16
             886.73,90.72 885.23,91.28 884.86,91.47
             883.36,92.22 881.47,92.41 879.97,92.78
             878.09,92.78 875.45,93.73 873.58,93.92
             873.77,93.92 875.27,86.95 876.20,86.20
             876.20,86.20 880.91,75.11 880.91,75.11
             881.47,75.11 881.47,74.17 881.47,73.98
             881.66,73.80 881.84,73.80 882.03,73.80
             882.41,73.80 882.98,73.98 883.17,73.98
             883.92,74.17 884.48,74.55 885.05,74.92
             885.98,76.25 886.73,77.38 887.30,78.69
             887.30,79.44 887.48,79.44 887.48,79.62
             888.05,81.50 888.23,83.20 888.23,84.89
             888.23,84.89 888.23,86.39 888.23,86.39 Z
           M 993.58,49.58
           C 988.50,51.27 983.61,54.86 980.05,58.81
             977.59,61.45 976.09,64.66 974.59,67.88
             972.52,72.39 970.45,76.92 968.58,81.64
             963.69,93.52 958.98,105.59 954.66,117.66
             951.47,106.53 948.45,95.22 945.45,84.09
             945.45,84.09 937.55,55.80 937.55,55.80
             937.55,55.61 937.55,55.42 937.36,55.23
             937.36,54.86 936.98,54.67 936.42,54.67
             935.30,54.67 933.61,55.23 933.23,55.23
             930.78,56.17 928.16,57.50 925.89,59.19
             923.64,60.70 921.39,62.39 919.69,64.47
             919.69,64.66 918.00,66.55 918.00,67.67
             918.00,67.88 918.00,68.25 918.19,68.44
             918.19,68.44 925.70,95.78 925.70,95.78
             929.09,108.42 932.67,121.25 936.23,133.89
             936.23,133.89 941.88,154.25 941.88,154.25
             942.25,154.81 942.81,155.00 943.38,155.00
             943.56,155.00 943.94,155.00 944.12,154.81
             946.39,154.44 948.64,153.31 950.72,152.17
             953.34,150.67 955.78,148.97 957.86,146.89
             959.36,145.58 960.67,144.06 961.23,142.19
             961.23,142.19 967.06,125.77 967.06,125.77
             971.39,114.08 975.72,102.20 980.23,90.69
             982.48,84.47 984.92,78.44 987.38,72.39
             989.06,68.25 990.75,64.28 992.64,60.33
             993.77,58.06 994.70,55.80 996.20,53.53
             996.58,53.16 996.58,52.97 996.58,52.97
             996.58,52.97 997.91,51.45 997.91,50.52
             997.91,50.14 997.91,49.95 997.72,49.58
             997.53,49.20 996.97,49.00 996.39,49.00
             995.45,49.00 994.14,49.39 993.58,49.58 Z" />
</svg>
